<?xml version="1.0" encoding="UTF-8"?><svg xmlns="http://www.w3.org/2000/svg" xmlns:xlink="http://www.w3.org/1999/xlink" width="768" zoomAndPan="magnify" viewBox="0 0 768 576" height="576" preserveAspectRatio="xMidYMid meet" version="1.0"><defs><clipPath id="clip-0"><path d="M 259.125 394 L 508.816406 394 L 508.816406 494.25 L 259.125 494.25 Z M 259.125 394 " clip-rule="nonzero"/></clipPath><clipPath id="clip-1"><path d="M 291 453 L 304 453 L 304 494.25 L 291 494.25 Z M 291 453 " clip-rule="nonzero"/></clipPath><clipPath id="clip-2"><path d="M 349 453 L 361 453 L 361 494.25 L 349 494.25 Z M 349 453 " clip-rule="nonzero"/></clipPath><clipPath id="clip-3"><path d="M 406 453 L 418 453 L 418 494.25 L 406 494.25 Z M 406 453 " clip-rule="nonzero"/></clipPath><clipPath id="clip-4"><path d="M 464 453 L 476 453 L 476 494.25 L 464 494.25 Z M 464 453 " clip-rule="nonzero"/></clipPath><clipPath id="clip-5"><path d="M 274 81.75 L 508 81.75 L 508 436 L 274 436 Z M 274 81.75 " clip-rule="nonzero"/></clipPath></defs><rect x="-76.8" width="921.6" fill="rgb(100%, 100%, 100%)" y="-57.6" height="691.2" fill-opacity="1"/><rect x="-76.8" width="921.6" fill="rgb(100%, 100%, 100%)" y="-57.6" height="691.2" fill-opacity="1"/><g clip-path="url(#clip-0)"><path fill="rgb(10.198975%, 10.198975%, 10.198975%)" d="M 408.335938 394.449219 C 405.195312 394.449219 402.78125 397.105469 402.78125 400.246094 C 402.78125 403.386719 405.195312 405.804688 408.335938 405.804688 L 467.996094 405.804688 L 494.566406 482.890625 L 272.59375 482.890625 L 291.191406 429.246094 L 299.402344 405.804688 L 374.761719 405.804688 C 377.902344 405.804688 380.316406 403.386719 380.316406 400.246094 C 380.316406 397.105469 377.902344 394.449219 374.761719 394.449219 L 295.296875 394.449219 C 293.121094 394.449219 290.949219 395.898438 289.984375 398.3125 L 280.5625 425.621094 L 259.550781 486.03125 C 259.308594 486.757812 259.066406 487.484375 259.066406 488.449219 C 259.066406 491.589844 261.480469 494.007812 264.621094 494.007812 L 264.621094 488.449219 L 264.621094 494.007812 L 502.054688 494.25 C 502.777344 494.25 503.742188 494.25 504.46875 494.007812 C 507.367188 493.039062 508.816406 489.65625 507.851562 486.757812 L 477.414062 398.554688 C 476.933594 396.140625 474.757812 394.449219 472.101562 394.449219 Z M 408.335938 394.449219 " fill-opacity="1" fill-rule="nonzero"/></g><path fill="rgb(10.198975%, 10.198975%, 10.198975%)" d="M 275.972656 453.167969 C 272.832031 453.167969 270.175781 455.585938 270.175781 458.726562 C 270.175781 461.867188 272.832031 464.527344 275.972656 464.527344 L 491.425781 464.285156 C 494.566406 464.285156 496.980469 461.867188 496.980469 458.726562 C 496.980469 455.585938 494.566406 452.925781 491.425781 452.925781 Z M 275.972656 453.167969 " fill-opacity="1" fill-rule="nonzero"/><path fill="rgb(10.198975%, 10.198975%, 10.198975%)" d="M 337.808594 400.246094 C 337.808594 397.105469 335.390625 394.449219 332.25 394.449219 C 329.113281 394.449219 326.695312 397.105469 326.695312 400.246094 L 326.695312 429.488281 C 326.695312 432.628906 329.113281 435.042969 332.25 435.042969 C 335.390625 435.042969 337.808594 432.628906 337.808594 429.488281 Z M 337.808594 400.246094 " fill-opacity="1" fill-rule="nonzero"/><path fill="rgb(10.198975%, 10.198975%, 10.198975%)" d="M 440.703125 400.246094 C 440.703125 397.105469 438.046875 394.449219 434.90625 394.449219 C 432.007812 394.449219 429.351562 397.105469 429.351562 400.246094 L 429.351562 429.488281 C 429.351562 432.628906 432.007812 435.042969 434.90625 435.042969 C 438.046875 435.042969 440.703125 432.628906 440.703125 429.488281 Z M 440.703125 400.246094 " fill-opacity="1" fill-rule="nonzero"/><path fill="rgb(10.198975%, 10.198975%, 10.198975%)" d="M 352.300781 429.488281 C 352.300781 426.34375 349.640625 423.929688 346.503906 423.929688 C 343.363281 423.929688 340.945312 426.34375 340.945312 429.488281 L 340.945312 458.726562 C 340.945312 461.867188 343.363281 464.285156 346.503906 464.285156 C 349.640625 464.285156 352.300781 461.867188 352.300781 458.726562 Z M 352.300781 429.488281 " fill-opacity="1" fill-rule="nonzero"/><path fill="rgb(10.198975%, 10.198975%, 10.198975%)" d="M 426.210938 429.488281 C 426.210938 426.34375 423.792969 423.929688 420.65625 423.929688 C 417.515625 423.929688 415.097656 426.34375 415.097656 429.488281 L 415.097656 458.726562 C 415.097656 461.867188 417.515625 464.285156 420.65625 464.285156 C 423.792969 464.285156 426.210938 461.867188 426.210938 458.726562 Z M 426.210938 429.488281 " fill-opacity="1" fill-rule="nonzero"/><g clip-path="url(#clip-1)"><path fill="rgb(10.198975%, 10.198975%, 10.198975%)" d="M 303.265625 458.726562 C 303.265625 455.585938 300.609375 453.167969 297.46875 453.167969 C 294.332031 453.167969 291.914062 455.585938 291.914062 458.726562 L 291.914062 488.449219 C 291.914062 491.589844 294.332031 494.007812 297.46875 494.007812 C 300.609375 494.007812 303.265625 491.589844 303.265625 488.449219 Z M 303.265625 458.726562 " fill-opacity="1" fill-rule="nonzero"/></g><g clip-path="url(#clip-2)"><path fill="rgb(10.198975%, 10.198975%, 10.198975%)" d="M 360.511719 458.726562 C 360.511719 455.585938 358.097656 453.167969 354.957031 453.167969 C 351.816406 453.167969 349.402344 455.585938 349.402344 458.726562 L 349.402344 488.449219 C 349.402344 491.589844 351.816406 494.007812 354.957031 494.007812 C 358.097656 494.007812 360.511719 491.589844 360.511719 488.449219 Z M 360.511719 458.726562 " fill-opacity="1" fill-rule="nonzero"/></g><g clip-path="url(#clip-3)"><path fill="rgb(10.198975%, 10.198975%, 10.198975%)" d="M 417.996094 458.726562 C 417.996094 455.585938 415.339844 453.167969 412.199219 453.167969 C 409.300781 453.167969 406.644531 455.585938 406.644531 458.726562 L 406.644531 488.449219 C 406.644531 491.589844 409.300781 494.007812 412.199219 494.007812 C 415.339844 494.007812 417.996094 491.589844 417.996094 488.449219 Z M 417.996094 458.726562 " fill-opacity="1" fill-rule="nonzero"/></g><g clip-path="url(#clip-4)"><path fill="rgb(10.198975%, 10.198975%, 10.198975%)" d="M 475.242188 458.726562 C 475.242188 455.585938 472.828125 453.167969 469.6875 453.167969 C 466.546875 453.167969 464.132812 455.585938 464.132812 458.726562 L 464.132812 488.449219 C 464.132812 491.589844 466.546875 494.007812 469.6875 494.007812 C 472.828125 494.007812 475.242188 491.589844 475.242188 488.449219 Z M 475.242188 458.726562 " fill-opacity="1" fill-rule="nonzero"/></g><g clip-path="url(#clip-5)"><path fill="rgb(10.198975%, 10.198975%, 10.198975%)" d="M 274.523438 198.46875 C 274.523438 166.328125 287.566406 137.089844 308.582031 116.066406 C 329.835938 94.800781 359.0625 81.75 391.1875 81.75 C 423.554688 81.75 452.539062 94.800781 473.792969 116.066406 C 494.808594 137.089844 507.851562 166.328125 507.851562 198.46875 C 507.851562 235.441406 453.988281 330.167969 418.722656 391.789062 C 409.542969 407.980469 401.574219 421.753906 396.257812 432.144531 C 394.808594 434.804688 391.429688 436.011719 388.53125 434.5625 C 387.5625 433.835938 386.597656 433.113281 386.113281 431.902344 C 380.800781 421.753906 372.832031 407.738281 363.652344 391.789062 C 328.386719 329.925781 274.523438 235.441406 274.523438 198.46875 Z M 316.550781 124.039062 C 297.710938 143.128906 285.875 169.46875 285.875 198.46875 C 285.875 232.542969 338.773438 325.578125 373.3125 386.230469 C 380.316406 398.3125 386.355469 408.945312 391.1875 417.644531 C 396.019531 408.945312 402.054688 398.3125 409.0625 386.230469 C 443.601562 325.578125 496.738281 232.542969 496.738281 198.46875 C 496.738281 169.46875 484.902344 143.128906 465.820312 124.039062 C 446.742188 104.949219 420.414062 93.109375 391.1875 93.109375 C 362.203125 93.109375 335.632812 104.949219 316.550781 124.039062 Z M 316.550781 124.039062 " fill-opacity="1" fill-rule="nonzero"/></g><path fill="rgb(10.198975%, 10.198975%, 10.198975%)" d="M 375.96875 139.265625 C 409.542969 130.324219 443.84375 150.136719 452.777344 183.726562 C 453.019531 183.726562 453.019531 183.96875 453.019531 183.96875 C 461.714844 217.558594 441.910156 251.632812 408.578125 260.574219 C 408.335938 260.574219 408.335938 260.574219 408.09375 260.574219 C 374.761719 269.515625 340.707031 249.457031 331.769531 216.109375 C 322.589844 182.761719 342.636719 148.203125 375.96875 139.265625 Z M 378.867188 150.136719 C 351.574219 157.628906 335.148438 185.902344 342.636719 213.210938 C 349.882812 240.757812 377.902344 256.949219 405.4375 249.699219 C 405.4375 249.699219 405.679688 249.699219 405.921875 249.699219 C 433.214844 242.207031 449.15625 214.175781 442.152344 186.867188 C 441.910156 186.628906 441.910156 186.628906 441.910156 186.386719 C 434.421875 159.078125 406.402344 142.886719 378.867188 150.136719 Z M 378.867188 150.136719 " fill-opacity="1" fill-rule="nonzero"/><path fill="rgb(10.198975%, 10.198975%, 10.198975%)" d="M 284.667969 423.929688 C 281.769531 423.929688 279.597656 426.34375 279.597656 429.488281 C 279.597656 432.628906 281.769531 435.285156 284.667969 435.285156 L 482.488281 435.042969 C 485.386719 435.042969 487.800781 432.628906 487.800781 429.488281 C 487.800781 426.34375 485.386719 423.6875 482.488281 423.6875 Z M 284.667969 423.929688 " fill-opacity="1" fill-rule="nonzero"/><path fill="rgb(49.409485%, 83.918762%, 24.708557%)" d="M 337.808594 405.804688 L 337.808594 423.929688 L 345.777344 423.929688 C 346.019531 423.929688 346.261719 423.929688 346.503906 423.929688 C 346.742188 423.929688 346.984375 423.929688 347.226562 423.929688 L 381.765625 423.929688 C 378.867188 418.371094 375.488281 412.328125 371.621094 405.804688 Z M 337.808594 405.804688 " fill-opacity="1" fill-rule="evenodd"/><path fill="rgb(49.409485%, 83.918762%, 24.708557%)" d="M 326.695312 423.929688 L 326.695312 405.804688 L 299.402344 405.804688 L 293.121094 423.929688 Z M 326.695312 423.929688 " fill-opacity="1" fill-rule="evenodd"/><path fill="rgb(49.409485%, 83.918762%, 24.708557%)" d="M 340.945312 435.042969 L 289.015625 435.042969 L 282.976562 453.167969 L 296.988281 453.167969 C 297.230469 453.167969 297.230469 453.167969 297.46875 453.167969 C 297.710938 453.167969 297.953125 453.167969 298.195312 453.167969 L 340.945312 453.167969 Z M 340.945312 435.042969 " fill-opacity="1" fill-rule="evenodd"/><path fill="rgb(49.409485%, 83.918762%, 24.708557%)" d="M 291.914062 482.890625 L 291.914062 464.285156 L 278.871094 464.527344 L 272.59375 482.890625 Z M 291.914062 482.890625 " fill-opacity="1" fill-rule="evenodd"/><path fill="rgb(49.409485%, 83.918762%, 24.708557%)" d="M 303.265625 464.285156 L 303.265625 482.890625 L 349.402344 482.890625 L 349.402344 464.285156 L 346.984375 464.285156 C 346.984375 464.285156 346.742188 464.285156 346.503906 464.285156 C 346.503906 464.285156 346.261719 464.285156 346.019531 464.285156 Z M 303.265625 464.285156 " fill-opacity="1" fill-rule="evenodd"/><path fill="rgb(49.409485%, 83.918762%, 24.708557%)" d="M 354.957031 453.167969 L 415.097656 453.167969 L 415.097656 435.042969 L 391.671875 435.042969 C 391.429688 435.042969 390.945312 435.042969 390.703125 435.042969 L 352.300781 435.042969 L 352.300781 453.167969 Z M 354.957031 453.167969 " fill-opacity="1" fill-rule="evenodd"/><path fill="rgb(49.409485%, 83.918762%, 24.708557%)" d="M 360.511719 464.285156 L 406.644531 464.285156 L 406.644531 482.890625 L 360.511719 482.890625 Z M 360.511719 464.285156 " fill-opacity="1" fill-rule="evenodd"/><path fill="rgb(49.409485%, 83.918762%, 24.708557%)" d="M 417.996094 464.285156 L 417.996094 482.890625 L 464.132812 482.890625 L 464.132812 464.285156 L 421.621094 464.285156 C 421.378906 464.285156 420.894531 464.285156 420.65625 464.285156 C 420.414062 464.285156 420.171875 464.285156 419.6875 464.285156 Z M 417.996094 464.285156 " fill-opacity="1" fill-rule="evenodd"/><path fill="rgb(49.409485%, 83.918762%, 24.708557%)" d="M 426.210938 453.167969 L 484.421875 453.167969 L 478.140625 435.042969 L 435.871094 435.042969 C 435.628906 435.042969 435.386719 435.042969 434.90625 435.042969 C 434.664062 435.042969 434.421875 435.042969 434.179688 435.042969 L 426.210938 435.042969 Z M 426.210938 453.167969 " fill-opacity="1" fill-rule="evenodd"/><path fill="rgb(49.409485%, 83.918762%, 24.708557%)" d="M 440.703125 423.929688 L 474.277344 423.6875 L 467.996094 405.804688 L 440.703125 405.804688 Z M 440.703125 423.929688 " fill-opacity="1" fill-rule="evenodd"/><path fill="rgb(49.409485%, 83.918762%, 24.708557%)" d="M 429.351562 423.929688 L 429.351562 405.804688 L 410.75 405.804688 C 407.128906 412.328125 403.746094 418.371094 400.605469 423.929688 Z M 429.351562 423.929688 " fill-opacity="1" fill-rule="evenodd"/><path fill="rgb(49.409485%, 83.918762%, 24.708557%)" d="M 475.242188 464.285156 L 475.242188 482.890625 L 494.566406 482.890625 L 488.285156 464.285156 Z M 475.242188 464.285156 " fill-opacity="1" fill-rule="evenodd"/><path fill="rgb(98.429871%, 14.509583%, 14.898682%)" d="M 496.738281 198.46875 C 496.738281 169.46875 484.902344 143.128906 465.820312 124.039062 C 446.742188 104.949219 420.414062 93.109375 391.1875 93.109375 C 362.203125 93.109375 335.632812 104.949219 316.550781 124.039062 C 297.710938 143.128906 285.875 169.46875 285.875 198.46875 C 285.875 232.542969 338.773438 325.578125 373.3125 386.230469 C 380.316406 398.3125 386.355469 408.945312 391.1875 417.644531 C 396.019531 408.945312 402.054688 398.3125 409.0625 386.230469 C 443.601562 325.578125 496.738281 232.542969 496.738281 198.46875 Z M 452.777344 183.726562 Z M 408.578125 260.574219 Z M 331.769531 216.109375 C 322.589844 182.761719 342.636719 148.203125 375.96875 139.265625 C 409.542969 130.324219 443.84375 150.136719 452.777344 183.726562 L 453.019531 183.96875 C 461.714844 217.558594 441.910156 251.632812 408.578125 260.574219 L 408.09375 260.574219 C 374.761719 269.515625 340.707031 249.457031 331.769531 216.109375 Z M 331.769531 216.109375 " fill-opacity="1" fill-rule="evenodd"/></svg>